<svg xmlns="http://www.w3.org/2000/svg" viewBox="0 0 16 16"><defs><style>.cls-1{fill:#d9a556;}.cls-2{fill:#0a3342;}</style></defs><g id="TERRA"><rect class="cls-1" x="0.79" y="0.79" width="14.41" height="14.41" rx="2.83"/><polyline class="cls-2" points="11.24 4.49 11.24 3.96 13.46 4.9 13.46 5.37"/><polyline class="cls-2" points="4.79 7.88 10.01 7.69 6.46 8.6 1.2 8.64 4.79 7.88"/><polyline class="cls-2" points="4.73 5.37 4.73 5.17 5.32 5.25"/><path class="cls-2" d="M5.74,10v1.45l-1.57-.26V9.81c0-.24.35-.44.8-.38S5.76,9.75,5.74,10Z"/><path class="cls-2" d="M3.7,9.8v1.27L2.62,10.9V9.68a.46.46,0,0,1,.56-.33C3.47,9.4,3.72,9.62,3.7,9.8Z"/><path class="cls-2" d="M1.91,11.42V9.5c0-.16.08-.23.18-.23s.18.13.18.29v2"/><polygon class="cls-2" points="6.77 5.66 6.77 6.19 7.15 6.14 7.15 5.6 6.77 5.66"/><path class="cls-2" d="M10,4v7.61l4.11-1.08V5.62Zm1.61,4.21-.47,0V6.72l.47.07Zm2-.41-.47,0v-1l.47.11Z"/><line class="cls-2" x1="13.16" y1="4.54" x2="13.44" y2="4.44"/><path class="cls-2" d="M13.36,4.36l0,0s0,0,0,0h0v0s0,0,0,0,0,0-.06,0a.12.12,0,0,1,0-.1.17.17,0,0,1,0-.07.22.22,0,0,0,0-.08h0s0,0,0,0h0s0,0,0,0,0,0,0,0,0,0,0,0h0a0,0,0,0,0,0,0v0s0,.08,0,.11a0,0,0,0,0,0,0s0,0,0,0,0,0,0,0a.07.07,0,0,1,0,0h.07a.05.05,0,0,1,0,.06l-.05,0a.08.08,0,0,1,.05,0h-.06s0,0,0,0h0a.28.28,0,0,1,0,.09A.13.13,0,0,1,13.36,4.36Z"/><polygon class="cls-2" points="4.88 7.88 4.73 7.88 4.73 5.37 4.88 5.34 4.88 7.88"/><polygon class="cls-2" points="5.52 7.58 5.52 6.5 6.25 6.42 6.25 7.54 6.25 7.54 5.52 7.58"/><polygon class="cls-2" points="7.69 7.43 7.69 6.26 8.69 6.14 8.69 7.38 7.69 7.43"/><polygon class="cls-2" points="1.41 8.64 1.51 8.69 1.51 8.83 1.6 11.31 1.6 8.64 1.41 8.64"/><path class="cls-2" d="M6.46,8.6v3.9L10,11.62l.07-3.93Zm3,2.44-1.75.32V9.91c0-.21.41-.49.88-.54s.84.14.87.37Z"/></g></svg>